<mxfile host="Electron" modified="2023-08-27T12:04:41.653Z" agent="Mozilla/5.0 (Windows NT 10.0; Win64; x64) AppleWebKit/537.36 (KHTML, like Gecko) draw.io/21.6.8 Chrome/114.0.5735.289 Electron/25.5.0 Safari/537.36" etag="EBSIkGPUyrlp5dvnz3bS" version="21.6.8" type="device">
  <diagram name="Page-1" id="10a91c8b-09ff-31b1-d368-03940ed4cc9e">
    <mxGraphModel dx="1098" dy="828" grid="1" gridSize="10" guides="1" tooltips="1" connect="1" arrows="1" fold="1" page="1" pageScale="1" pageWidth="1100" pageHeight="850" background="none" math="0" shadow="0">
      <root>
        <mxCell id="0" />
        <mxCell id="1" parent="0" />
        <mxCell id="Wmcvq4PDLPZTZNXe5viw-1" value="&lt;font style=&quot;font-size: 20px&quot;&gt;(9) Dayaljibhai&lt;br&gt;Vadgama&lt;br&gt;&lt;/font&gt;" style="rounded=0;whiteSpace=wrap;html=1;" parent="1" vertex="1">
          <mxGeometry x="920" y="250" width="150" height="70" as="geometry" />
        </mxCell>
        <mxCell id="Wmcvq4PDLPZTZNXe5viw-2" value="&lt;font style=&quot;font-size: 20px&quot;&gt;(10) Taraben&lt;/font&gt;&lt;br style=&quot;font-size: 20px&quot;&gt;&lt;span style=&quot;font-size: 20px&quot;&gt;Vadgama&lt;/span&gt;" style="rounded=0;whiteSpace=wrap;html=1;" parent="1" vertex="1">
          <mxGeometry x="1070" y="250" width="150" height="70" as="geometry" />
        </mxCell>
        <mxCell id="Wmcvq4PDLPZTZNXe5viw-3" value="&lt;font style=&quot;font-size: 20px&quot;&gt;(3) Pritiben&lt;/font&gt;&lt;br style=&quot;font-size: 20px&quot;&gt;&lt;span style=&quot;font-size: 20px&quot;&gt;Vadgama&lt;/span&gt;" style="rounded=0;whiteSpace=wrap;html=1;" parent="1" vertex="1">
          <mxGeometry x="330" y="440" width="150" height="70" as="geometry" />
        </mxCell>
        <mxCell id="Wmcvq4PDLPZTZNXe5viw-4" value="&lt;font style=&quot;font-size: 20px&quot;&gt;(2) Dipakbhai&lt;/font&gt;&lt;br style=&quot;font-size: 20px&quot;&gt;&lt;span style=&quot;font-size: 20px&quot;&gt;Vadgama&lt;/span&gt;" style="rounded=0;whiteSpace=wrap;html=1;" parent="1" vertex="1">
          <mxGeometry x="180" y="440" width="150" height="70" as="geometry" />
        </mxCell>
        <mxCell id="Wmcvq4PDLPZTZNXe5viw-5" value="&lt;font style=&quot;font-size: 20px&quot;&gt;(6) Ketnaben&lt;/font&gt;&lt;br style=&quot;font-size: 20px&quot;&gt;&lt;span style=&quot;font-size: 20px&quot;&gt;Vadgama&lt;/span&gt;" style="rounded=0;whiteSpace=wrap;html=1;" parent="1" vertex="1">
          <mxGeometry x="750" y="440" width="150" height="70" as="geometry" />
        </mxCell>
        <mxCell id="Wmcvq4PDLPZTZNXe5viw-6" value="&lt;font style=&quot;font-size: 20px&quot;&gt;(5) Kiritbhai&lt;/font&gt;&lt;br style=&quot;font-size: 20px&quot;&gt;&lt;span style=&quot;font-size: 20px&quot;&gt;Vadgama&lt;/span&gt;" style="rounded=0;whiteSpace=wrap;html=1;" parent="1" vertex="1">
          <mxGeometry x="600" y="440" width="150" height="70" as="geometry" />
        </mxCell>
        <mxCell id="Wmcvq4PDLPZTZNXe5viw-8" value="&lt;font style=&quot;font-size: 20px&quot;&gt;(1) Archan&lt;/font&gt;&lt;br style=&quot;font-size: 20px&quot;&gt;&lt;span style=&quot;font-size: 20px&quot;&gt;Vadgama&lt;/span&gt;" style="rounded=0;whiteSpace=wrap;html=1;" parent="1" vertex="1">
          <mxGeometry x="90" y="600" width="150" height="70" as="geometry" />
        </mxCell>
        <mxCell id="Wmcvq4PDLPZTZNXe5viw-9" value="&lt;font style=&quot;font-size: 20px&quot;&gt;(4) Mansi&lt;/font&gt;&lt;br style=&quot;font-size: 20px&quot;&gt;&lt;span style=&quot;font-size: 20px&quot;&gt;Vadgama&lt;/span&gt;" style="rounded=0;whiteSpace=wrap;html=1;" parent="1" vertex="1">
          <mxGeometry x="280" y="600" width="150" height="70" as="geometry" />
        </mxCell>
        <mxCell id="Wmcvq4PDLPZTZNXe5viw-10" value="&lt;font style=&quot;font-size: 20px&quot;&gt;(7) Harshil&lt;/font&gt;&lt;br style=&quot;font-size: 20px&quot;&gt;&lt;span style=&quot;font-size: 20px&quot;&gt;Vadgama&lt;/span&gt;" style="rounded=0;whiteSpace=wrap;html=1;" parent="1" vertex="1">
          <mxGeometry x="520" y="600" width="150" height="70" as="geometry" />
        </mxCell>
        <mxCell id="Wmcvq4PDLPZTZNXe5viw-11" value="&lt;font style=&quot;font-size: 20px&quot;&gt;(8) Kinjal&lt;/font&gt;&lt;br style=&quot;font-size: 20px&quot;&gt;&lt;span style=&quot;font-size: 20px&quot;&gt;Vadgama&lt;/span&gt;" style="rounded=0;whiteSpace=wrap;html=1;" parent="1" vertex="1">
          <mxGeometry x="710" y="600" width="150" height="70" as="geometry" />
        </mxCell>
        <mxCell id="Wmcvq4PDLPZTZNXe5viw-16" value="" style="endArrow=none;html=1;rounded=0;fontSize=20;entryX=0.5;entryY=1;entryDx=0;entryDy=0;exitX=0.5;exitY=0;exitDx=0;exitDy=0;" parent="1" source="Wmcvq4PDLPZTZNXe5viw-4" target="Wmcvq4PDLPZTZNXe5viw-1" edge="1">
          <mxGeometry width="50" height="50" relative="1" as="geometry">
            <mxPoint x="530" y="480" as="sourcePoint" />
            <mxPoint x="580" y="430" as="targetPoint" />
            <Array as="points">
              <mxPoint x="255" y="400" />
              <mxPoint x="995" y="400" />
            </Array>
          </mxGeometry>
        </mxCell>
        <mxCell id="Wmcvq4PDLPZTZNXe5viw-17" value="" style="endArrow=none;html=1;rounded=0;fontSize=20;entryX=0.5;entryY=1;entryDx=0;entryDy=0;exitX=0.5;exitY=0;exitDx=0;exitDy=0;" parent="1" source="Wmcvq4PDLPZTZNXe5viw-6" target="Wmcvq4PDLPZTZNXe5viw-1" edge="1">
          <mxGeometry width="50" height="50" relative="1" as="geometry">
            <mxPoint x="265" y="450" as="sourcePoint" />
            <mxPoint x="485" y="370" as="targetPoint" />
            <Array as="points">
              <mxPoint x="675" y="400" />
              <mxPoint x="995" y="400" />
            </Array>
          </mxGeometry>
        </mxCell>
        <mxCell id="Wmcvq4PDLPZTZNXe5viw-18" value="" style="endArrow=none;html=1;rounded=0;fontSize=20;entryX=0.5;entryY=1;entryDx=0;entryDy=0;exitX=0.5;exitY=0;exitDx=0;exitDy=0;" parent="1" source="Wmcvq4PDLPZTZNXe5viw-11" target="Wmcvq4PDLPZTZNXe5viw-6" edge="1">
          <mxGeometry width="50" height="50" relative="1" as="geometry">
            <mxPoint x="880" y="590" as="sourcePoint" />
            <mxPoint x="680" y="510" as="targetPoint" />
            <Array as="points">
              <mxPoint x="785" y="560" />
              <mxPoint x="675" y="560" />
            </Array>
          </mxGeometry>
        </mxCell>
        <mxCell id="Wmcvq4PDLPZTZNXe5viw-19" value="" style="endArrow=none;html=1;rounded=0;fontSize=20;entryX=0.5;entryY=1;entryDx=0;entryDy=0;exitX=0.5;exitY=0;exitDx=0;exitDy=0;" parent="1" source="Wmcvq4PDLPZTZNXe5viw-9" target="Wmcvq4PDLPZTZNXe5viw-4" edge="1">
          <mxGeometry width="50" height="50" relative="1" as="geometry">
            <mxPoint x="355" y="600" as="sourcePoint" />
            <mxPoint x="250" y="510" as="targetPoint" />
            <Array as="points">
              <mxPoint x="355" y="560" />
              <mxPoint x="255" y="560" />
            </Array>
          </mxGeometry>
        </mxCell>
        <mxCell id="Wmcvq4PDLPZTZNXe5viw-21" value="" style="endArrow=none;html=1;rounded=0;fontSize=20;exitX=0.5;exitY=0;exitDx=0;exitDy=0;entryX=0.5;entryY=1;entryDx=0;entryDy=0;" parent="1" source="Wmcvq4PDLPZTZNXe5viw-8" target="Wmcvq4PDLPZTZNXe5viw-4" edge="1">
          <mxGeometry width="50" height="50" relative="1" as="geometry">
            <mxPoint x="365" y="610" as="sourcePoint" />
            <mxPoint x="220" y="560" as="targetPoint" />
            <Array as="points">
              <mxPoint x="165" y="560" />
              <mxPoint x="255" y="560" />
            </Array>
          </mxGeometry>
        </mxCell>
        <mxCell id="Wmcvq4PDLPZTZNXe5viw-22" value="" style="endArrow=none;html=1;rounded=0;fontSize=20;exitX=0.5;exitY=0;exitDx=0;exitDy=0;entryX=0.5;entryY=1;entryDx=0;entryDy=0;" parent="1" source="Wmcvq4PDLPZTZNXe5viw-10" target="Wmcvq4PDLPZTZNXe5viw-6" edge="1">
          <mxGeometry width="50" height="50" relative="1" as="geometry">
            <mxPoint x="570" y="600" as="sourcePoint" />
            <mxPoint x="660" y="510" as="targetPoint" />
            <Array as="points">
              <mxPoint x="595" y="560" />
              <mxPoint x="675" y="560" />
            </Array>
          </mxGeometry>
        </mxCell>
        <mxCell id="Wmcvq4PDLPZTZNXe5viw-23" value="&lt;font style=&quot;font-size: 20px&quot;&gt;() Alkaben&lt;br&gt;Kadecha&lt;/font&gt;" style="rounded=0;whiteSpace=wrap;html=1;" parent="1" vertex="1">
          <mxGeometry x="1270" y="440" width="150" height="70" as="geometry" />
        </mxCell>
        <mxCell id="Wmcvq4PDLPZTZNXe5viw-24" value="&lt;font style=&quot;font-size: 20px&quot;&gt;() Shaileshbhai&lt;br&gt;Kadecha&lt;br&gt;&lt;/font&gt;" style="rounded=0;whiteSpace=wrap;html=1;" parent="1" vertex="1">
          <mxGeometry x="1120" y="440" width="150" height="70" as="geometry" />
        </mxCell>
        <mxCell id="Wmcvq4PDLPZTZNXe5viw-25" value="&lt;font style=&quot;font-size: 20px&quot;&gt;() Rohit&lt;br&gt;Kadecha&lt;br&gt;&lt;/font&gt;" style="rounded=0;whiteSpace=wrap;html=1;" parent="1" vertex="1">
          <mxGeometry x="930" y="600" width="150" height="70" as="geometry" />
        </mxCell>
        <mxCell id="Wmcvq4PDLPZTZNXe5viw-26" value="&lt;font style=&quot;font-size: 20px&quot;&gt;() Pratik&lt;br&gt;Kadecha&lt;br&gt;&lt;/font&gt;" style="rounded=0;whiteSpace=wrap;html=1;" parent="1" vertex="1">
          <mxGeometry x="1300" y="600" width="150" height="70" as="geometry" />
        </mxCell>
        <mxCell id="Wmcvq4PDLPZTZNXe5viw-27" value="" style="endArrow=none;html=1;rounded=0;fontSize=20;entryX=0.5;entryY=1;entryDx=0;entryDy=0;exitX=0.5;exitY=0;exitDx=0;exitDy=0;" parent="1" source="Wmcvq4PDLPZTZNXe5viw-26" target="Wmcvq4PDLPZTZNXe5viw-24" edge="1">
          <mxGeometry width="50" height="50" relative="1" as="geometry">
            <mxPoint x="1225" y="600" as="sourcePoint" />
            <mxPoint x="1120" y="510" as="targetPoint" />
            <Array as="points">
              <mxPoint x="1375" y="560" />
              <mxPoint x="1195" y="560" />
            </Array>
          </mxGeometry>
        </mxCell>
        <mxCell id="Wmcvq4PDLPZTZNXe5viw-28" value="" style="endArrow=none;html=1;rounded=0;fontSize=20;exitX=0.5;exitY=0;exitDx=0;exitDy=0;entryX=0.5;entryY=1;entryDx=0;entryDy=0;" parent="1" source="Wmcvq4PDLPZTZNXe5viw-25" target="Wmcvq4PDLPZTZNXe5viw-24" edge="1">
          <mxGeometry width="50" height="50" relative="1" as="geometry">
            <mxPoint x="1235" y="610" as="sourcePoint" />
            <mxPoint x="1090" y="560" as="targetPoint" />
            <Array as="points">
              <mxPoint x="1005" y="560" />
              <mxPoint x="1195" y="560" />
            </Array>
          </mxGeometry>
        </mxCell>
        <mxCell id="Wmcvq4PDLPZTZNXe5viw-29" value="&lt;font style=&quot;font-size: 20px&quot;&gt;() Jitendrabhai&lt;br&gt;Sachania&lt;/font&gt;" style="rounded=0;whiteSpace=wrap;html=1;" parent="1" vertex="1">
          <mxGeometry x="1730" y="440" width="150" height="70" as="geometry" />
        </mxCell>
        <mxCell id="Wmcvq4PDLPZTZNXe5viw-30" value="&lt;font style=&quot;font-size: 20px&quot;&gt;() Shivani&lt;br&gt;Sachania&lt;br&gt;&lt;/font&gt;" style="rounded=0;whiteSpace=wrap;html=1;" parent="1" vertex="1">
          <mxGeometry x="1830" y="600" width="150" height="70" as="geometry" />
        </mxCell>
        <mxCell id="Wmcvq4PDLPZTZNXe5viw-31" value="" style="endArrow=none;html=1;rounded=0;fontSize=20;entryX=0.5;entryY=1;entryDx=0;entryDy=0;exitX=0.5;exitY=0;exitDx=0;exitDy=0;" parent="1" source="Wmcvq4PDLPZTZNXe5viw-30" target="Wmcvq4PDLPZTZNXe5viw-29" edge="1">
          <mxGeometry width="50" height="50" relative="1" as="geometry">
            <mxPoint x="1905" y="600" as="sourcePoint" />
            <mxPoint x="1800" y="510" as="targetPoint" />
            <Array as="points">
              <mxPoint x="1905" y="560" />
              <mxPoint x="1805" y="560" />
            </Array>
          </mxGeometry>
        </mxCell>
        <mxCell id="Wmcvq4PDLPZTZNXe5viw-32" value="" style="endArrow=none;html=1;rounded=0;fontSize=20;exitX=0.5;exitY=0;exitDx=0;exitDy=0;entryX=0.5;entryY=1;entryDx=0;entryDy=0;" parent="1" source="Wmcvq4PDLPZTZNXe5viw-34" target="Wmcvq4PDLPZTZNXe5viw-29" edge="1">
          <mxGeometry width="50" height="50" relative="1" as="geometry">
            <mxPoint x="1915" y="610" as="sourcePoint" />
            <mxPoint x="1770" y="560" as="targetPoint" />
            <Array as="points">
              <mxPoint x="1715" y="560" />
              <mxPoint x="1805" y="560" />
            </Array>
          </mxGeometry>
        </mxCell>
        <mxCell id="Wmcvq4PDLPZTZNXe5viw-33" value="&lt;font style=&quot;font-size: 20px&quot;&gt;() Minaben Sachania&lt;/font&gt;" style="rounded=0;whiteSpace=wrap;html=1;" parent="1" vertex="1">
          <mxGeometry x="1880" y="440" width="150" height="70" as="geometry" />
        </mxCell>
        <mxCell id="Wmcvq4PDLPZTZNXe5viw-34" value="&lt;font style=&quot;font-size: 20px&quot;&gt;() Dishal&lt;br&gt;Sachania&lt;br&gt;&lt;/font&gt;" style="rounded=0;whiteSpace=wrap;html=1;" parent="1" vertex="1">
          <mxGeometry x="1640" y="600" width="150" height="70" as="geometry" />
        </mxCell>
        <mxCell id="Wmcvq4PDLPZTZNXe5viw-37" value="" style="endArrow=none;html=1;rounded=0;fontSize=20;entryX=0.5;entryY=1;entryDx=0;entryDy=0;exitX=0.5;exitY=0;exitDx=0;exitDy=0;" parent="1" source="Wmcvq4PDLPZTZNXe5viw-33" target="Wmcvq4PDLPZTZNXe5viw-1" edge="1">
          <mxGeometry width="50" height="50" relative="1" as="geometry">
            <mxPoint x="1140" y="439.9999999999998" as="sourcePoint" />
            <mxPoint x="1880" y="320.0000000000002" as="targetPoint" />
            <Array as="points">
              <mxPoint x="1955" y="400" />
              <mxPoint x="995" y="400" />
            </Array>
          </mxGeometry>
        </mxCell>
        <mxCell id="Wmcvq4PDLPZTZNXe5viw-38" value="" style="endArrow=none;html=1;rounded=0;fontSize=20;entryX=0.5;entryY=1;entryDx=0;entryDy=0;exitX=0.5;exitY=0;exitDx=0;exitDy=0;" parent="1" source="Wmcvq4PDLPZTZNXe5viw-23" target="Wmcvq4PDLPZTZNXe5viw-1" edge="1">
          <mxGeometry width="50" height="50" relative="1" as="geometry">
            <mxPoint x="685" y="449.9999999999998" as="sourcePoint" />
            <mxPoint x="1005" y="330.0000000000002" as="targetPoint" />
            <Array as="points">
              <mxPoint x="1345" y="400" />
              <mxPoint x="995" y="400" />
            </Array>
          </mxGeometry>
        </mxCell>
        <mxCell id="Wmcvq4PDLPZTZNXe5viw-39" value="&lt;font style=&quot;font-size: 20px&quot;&gt;() Binal&lt;br&gt;Kadecha&lt;br&gt;&lt;/font&gt;" style="rounded=0;whiteSpace=wrap;html=1;" parent="1" vertex="1">
          <mxGeometry x="1080" y="600" width="150" height="70" as="geometry" />
        </mxCell>
        <mxCell id="Wmcvq4PDLPZTZNXe5viw-40" value="&lt;font style=&quot;font-size: 20px&quot;&gt;() Jigna&lt;br&gt;Kadecha&lt;br&gt;&lt;/font&gt;" style="rounded=0;whiteSpace=wrap;html=1;" parent="1" vertex="1">
          <mxGeometry x="1450" y="600" width="150" height="70" as="geometry" />
        </mxCell>
        <mxCell id="Wmcvq4PDLPZTZNXe5viw-41" value="&lt;font style=&quot;font-size: 20px&quot;&gt;() Yami&lt;br&gt;Kadecha&lt;br&gt;&lt;/font&gt;" style="rounded=0;whiteSpace=wrap;html=1;" parent="1" vertex="1">
          <mxGeometry x="1300" y="760" width="150" height="70" as="geometry" />
        </mxCell>
        <mxCell id="Wmcvq4PDLPZTZNXe5viw-42" value="" style="endArrow=none;html=1;rounded=0;fontSize=20;entryX=0.5;entryY=0;entryDx=0;entryDy=0;exitX=0.5;exitY=1;exitDx=0;exitDy=0;" parent="1" source="Wmcvq4PDLPZTZNXe5viw-26" target="Wmcvq4PDLPZTZNXe5viw-41" edge="1">
          <mxGeometry width="50" height="50" relative="1" as="geometry">
            <mxPoint x="1385" y="610.0000000000002" as="sourcePoint" />
            <mxPoint x="1205" y="520.0000000000002" as="targetPoint" />
          </mxGeometry>
        </mxCell>
      </root>
    </mxGraphModel>
  </diagram>
</mxfile>
